<svg xmlns="http://www.w3.org/2000/svg" width="800" height="600" viewBox="0 0 800 600">
  <!-- Room background -->
  <rect width="800" height="600" fill="#f8f9fa"/>
  
  <!-- Room walls -->
  <rect x="50" y="50" width="700" height="500" fill="#ffffff" stroke="#e0e0e0" stroke-width="2"/>
  
  <!-- Floor -->
  <rect x="50" y="450" width="700" height="100" fill="#bcaaa4" opacity="0.7"/>
  
  <!-- Large panoramic window -->
  <rect x="450" y="100" width="250" height="250" fill="#e1f5fe" stroke="#81d4fa" stroke-width="10"/>
  <line x1="575" y1="100" x2="575" y2="350" stroke="#81d4fa" stroke-width="5"/>
  <line x1="450" y1="225" x2="700" y2="225" stroke="#81d4fa" stroke-width="5"/>
  
  <!-- King bed -->
  <rect x="150" y="350" width="250" height="150" fill="#fff8e1" stroke="#ffecb3" stroke-width="2"/>
  <rect x="150" y="300" width="250" height="50" fill="#ffe082" stroke="#ffecb3" stroke-width="2"/>
  <rect x="170" y="250" width="210" height="50" fill="#ffe082" stroke="#ffecb3" stroke-width="2"/>
  
  <!-- Decorative bed runner -->
  <rect x="170" y="370" width="210" height="30" fill="#90caf9" stroke="#64b5f6" stroke-width="1"/>
  
  <!-- Pillows -->
  <rect x="180" y="260" width="70" height="60" rx="10" ry="10" fill="#ffffff" stroke="#eeeeee" stroke-width="2"/>
  <rect x="300" y="260" width="70" height="60" rx="10" ry="10" fill="#ffffff" stroke="#eeeeee" stroke-width="2"/>
  <rect x="200" y="280" width="30" height="30" rx="5" ry="5" fill="#90caf9" stroke="#64b5f6" stroke-width="1"/>
  <rect x="320" y="280" width="30" height="30" rx="5" ry="5" fill="#90caf9" stroke="#64b5f6" stroke-width="1"/>
  
  <!-- Nightstands -->
  <rect x="100" y="350" width="50" height="70" fill="#8d6e63" stroke="#6d4c41" stroke-width="2"/>
  <rect x="110" y="340" width="30" height="10" fill="#6d4c41"/>
  <rect x="400" y="350" width="50" height="70" fill="#8d6e63" stroke="#6d4c41" stroke-width="2"/>
  <rect x="410" y="340" width="30" height="10" fill="#6d4c41"/>
  
  <!-- Lamps on nightstands -->
  <rect x="115" y="310" width="20" height="30" fill="#d7ccc8"/>
  <ellipse cx="125" cy="300" rx="20" ry="12" fill="#ffecb3"/>
  <rect x="415" y="310" width="20" height="30" fill="#d7ccc8"/>
  <ellipse cx="425" cy="300" rx="20" ry="12" fill="#ffecb3"/>
  
  <!-- Seating area -->
  <rect x="100" y="150" width="80" height="80" rx="10" ry="10" fill="#90caf9" stroke="#64b5f6" stroke-width="2"/>
  <rect x="200" y="150" width="80" height="80" rx="10" ry="10" fill="#90caf9" stroke="#64b5f6" stroke-width="2"/>
  
  <!-- Coffee table -->
  <ellipse cx="190" cy="200" rx="40" ry="20" fill="#a1887f" stroke="#8d6e63" stroke-width="2"/>
  <line x1="190" y1="200" x2="190" y2="230" stroke="#8d6e63" stroke-width="10"/>
  <ellipse cx="190" cy="230" rx="20" ry="5" fill="#8d6e63"/>
  
  <!-- TV on wall -->
  <rect x="300" y="150" width="120" height="80" fill="#212121" stroke="#424242" stroke-width="2"/>
  
  <!-- Bathroom area (suggested by partial view) -->
  <rect x="500" y="400" width="150" height="50" fill="#e0f7fa" stroke="#b2ebf2" stroke-width="2"/>
  <ellipse cx="550" cy="425" rx="40" ry="20" fill="#ffffff" stroke="#b2ebf2" stroke-width="2"/>
  
  <!-- Decorative elements -->
  <rect x="600" y="150" width="50" height="100" fill="#e0e0e0" stroke="#bdbdbd" stroke-width="2"/>
  <rect x="610" y="160" width="30" height="80" fill="#78909c"/>
  
  <!-- Chandelier/Ceiling light -->
  <path d="M 275,50 L 275,100" stroke="#bdbdbd" stroke-width="2"/>
  <ellipse cx="275" cy="100" rx="30" ry="10" fill="#ffecb3" opacity="0.7"/>
  <ellipse cx="275" cy="100" rx="40" ry="15" fill="none" stroke="#bdbdbd" stroke-width="1" stroke-dasharray="5,5"/>
</svg>