<svg xmlns="http://www.w3.org/2000/svg" width="800" height="600" viewBox="0 0 800 600">
  <!-- Restaurant background -->
  <rect width="800" height="600" fill="#f5f5f5"/>
  
  <!-- Floor -->
  <rect x="0" y="400" width="800" height="200" fill="#8d6e63" opacity="0.7"/>
  
  <!-- Ceiling -->
  <rect x="0" y="0" width="800" height="80" fill="#e0e0e0"/>
  
  <!-- Back wall -->
  <rect x="0" y="80" width="800" height="320" fill="#eeeeee"/>
  
  <!-- Windows -->
  <rect x="100" y="120" width="150" height="200" fill="#bbdefb" stroke="#64b5f6" stroke-width="5"/>
  <line x1="175" y1="120" x2="175" y2="320" stroke="#64b5f6" stroke-width="3"/>
  <line x1="100" y1="220" x2="250" y2="220" stroke="#64b5f6" stroke-width="3"/>
  
  <rect x="550" y="120" width="150" height="200" fill="#bbdefb" stroke="#64b5f6" stroke-width="5"/>
  <line x1="625" y1="120" x2="625" y2="320" stroke="#64b5f6" stroke-width="3"/>
  <line x1="550" y1="220" x2="700" y2="220" stroke="#64b5f6" stroke-width="3"/>
  
  <!-- Chandeliers -->
  <g>
    <path d="M 300,0 L 300,100" stroke="#bdbdbd" stroke-width="2"/>
    <ellipse cx="300" cy="100" rx="40" ry="15" fill="none" stroke="#bdbdbd" stroke-width="2"/>
    <circle cx="300" cy="100" r="10" fill="#ffecb3" opacity="0.8"/>
  </g>
  
  <g>
    <path d="M 500,0 L 500,100" stroke="#bdbdbd" stroke-width="2"/>
    <ellipse cx="500" cy="100" rx="40" ry="15" fill="none" stroke="#bdbdbd" stroke-width="2"/>
    <circle cx="500" cy="100" r="10" fill="#ffecb3" opacity="0.8"/>
  </g>
  
  <!-- Tables -->
  <g>
    <!-- Table 1 -->
    <ellipse cx="200" cy="450" rx="50" ry="30" fill="#a1887f" stroke="#8d6e63" stroke-width="2"/>
    <rect x="195" y="450" width="10" height="50" fill="#8d6e63"/>
    
    <!-- Chairs for Table 1 -->
    <rect x="150" y="430" width="30" height="30" rx="5" ry="5" fill="#90a4ae" stroke="#78909c" stroke-width="1"/>
    <rect x="220" y="430" width="30" height="30" rx="5" ry="5" fill="#90a4ae" stroke="#78909c" stroke-width="1"/>
    <rect x="185" y="480" width="30" height="30" rx="5" ry="5" fill="#90a4ae" stroke="#78909c" stroke-width="1"/>
    
    <!-- Table setting -->
    <circle cx="185" cy="440" r="10" fill="#f5f5f5" stroke="#e0e0e0" stroke-width="1"/>
    <circle cx="215" cy="440" r="10" fill="#f5f5f5" stroke="#e0e0e0" stroke-width="1"/>
    <rect x="180" y="445" width="5" height="10" fill="#bdbdbd"/>
    <rect x="210" y="445" width="5" height="10" fill="#bdbdbd"/>
  </g>
  
  <g>
    <!-- Table 2 -->
    <ellipse cx="400" cy="450" rx="50" ry="30" fill="#a1887f" stroke="#8d6e63" stroke-width="2"/>
    <rect x="395" y="450" width="10" height="50" fill="#8d6e63"/>
    
    <!-- Chairs for Table 2 -->
    <rect x="350" y="430" width="30" height="30" rx="5" ry="5" fill="#90a4ae" stroke="#78909c" stroke-width="1"/>
    <rect x="420" y="430" width="30" height="30" rx="5" ry="5" fill="#90a4ae" stroke="#78909c" stroke-width="1"/>
    <rect x="385" y="480" width="30" height="30" rx="5" ry="5" fill="#90a4ae" stroke="#78909c" stroke-width="1"/>
    
    <!-- Table setting -->
    <circle cx="385" cy="440" r="10" fill="#f5f5f5" stroke="#e0e0e0" stroke-width="1"/>
    <circle cx="415" cy="440" r="10" fill="#f5f5f5" stroke="#e0e0e0" stroke-width="1"/>
    <rect x="380" y="445" width="5" height="10" fill="#bdbdbd"/>
    <rect x="410" y="445" width="5" height="10" fill="#bdbdbd"/>
  </g>
  
  <g>
    <!-- Table 3 -->
    <ellipse cx="600" cy="450" rx="50" ry="30" fill="#a1887f" stroke="#8d6e63" stroke-width="2"/>
    <rect x="595" y="450" width="10" height="50" fill="#8d6e63"/>
    
    <!-- Chairs for Table 3 -->
    <rect x="550" y="430" width="30" height="30" rx="5" ry="5" fill="#90a4ae" stroke="#78909c" stroke-width="1"/>
    <rect x="620" y="430" width="30" height="30" rx="5" ry="5" fill="#90a4ae" stroke="#78909c" stroke-width="1"/>
    <rect x="585" y="480" width="30" height="30" rx="5" ry="5" fill="#90a4ae" stroke="#78909c" stroke-width="1"/>
    
    <!-- Table setting -->
    <circle cx="585" cy="440" r="10" fill="#f5f5f5" stroke="#e0e0e0" stroke-width="1"/>
    <circle cx="615" cy="440" r="10" fill="#f5f5f5" stroke="#e0e0e0" stroke-width="1"/>
    <rect x="580" y="445" width="5" height="10" fill="#bdbdbd"/>
    <rect x="610" y="445" width="5" height="10" fill="#bdbdbd"/>
  </g>
  
  <!-- Decorative elements -->
  <rect x="350" y="150" width="100" height="150" fill="#e0e0e0" stroke="#bdbdbd" stroke-width="3"/>
  <rect x="360" y="160" width="80" height="130" fill="#ffcc80"/>
  
  <!-- Plants -->
  <rect x="50" y="350" width="30" height="50" fill="#5d4037"/>
  <path d="M 65,350 C 40,320 30,330 50,300 C 70,330 60,320 65,350" fill="#66bb6a"/>
  
  <rect x="720" y="350" width="30" height="50" fill="#5d4037"/>
  <path d="M 735,350 C 710,320 700,330 720,300 C 740,330 730,320 735,350" fill="#66bb6a"/>
  
  <!-- Bar area -->
  <rect x="50" y="200" width="200" height="80" fill="#a1887f" stroke="#8d6e63" stroke-width="2"/>
  <rect x="50" y="250" width="200" height="30" fill="#8d6e63"/>
  
  <!-- Bar stools -->
  <rect x="80" y="280" width="20" height="30" fill="#8d6e63"/>
  <rect x="75" y="270" width="30" height="10" rx="5" ry="5" fill="#90a4ae" stroke="#78909c" stroke-width="1"/>
  
  <rect x="140" y="280" width="20" height="30" fill="#8d6e63"/>
  <rect x="135" y="270" width="30" height="10" rx="5" ry="5" fill="#90a4ae" stroke="#78909c" stroke-width="1"/>
  
  <rect x="200" y="280" width="20" height="30" fill="#8d6e63"/>
  <rect x="195" y="270" width="30" height="10" rx="5" ry="5" fill="#90a4ae" stroke="#78909c" stroke-width="1"/>
  
  <!-- Bottles on bar -->
  <rect x="70" y="180" width="10" height="20" fill="#4caf50" opacity="0.8"/>
  <rect x="90" y="180" width="10" height="20" fill="#f44336" opacity="0.8"/>
  <rect x="110" y="180" width="10" height="20" fill="#2196f3" opacity="0.8"/>
  <rect x="130" y="180" width="10" height="20" fill="#ffeb3b" opacity="0.8"/>
  <rect x="150" y="180" width="10" height="20" fill="#9c27b0" opacity="0.8"/>
</svg>