<svg xmlns="http://www.w3.org/2000/svg" width="1920" height="1080" viewBox="0 0 1920 1080">
  <!-- Sky background -->
  <linearGradient id="skyGradient" x1="0%" y1="0%" x2="0%" y2="100%">
    <stop offset="0%" style="stop-color:#1a237e;stop-opacity:1" />
    <stop offset="100%" style="stop-color:#5c6bc0;stop-opacity:1" />
  </linearGradient>
  <rect width="1920" height="1080" fill="url(#skyGradient)"/>
  
  <!-- Stars -->
  <g fill="#ffffff">
    <circle cx="200" cy="150" r="1.5" opacity="0.8"/>
    <circle cx="400" cy="100" r="1" opacity="0.6"/>
    <circle cx="600" cy="200" r="1.2" opacity="0.7"/>
    <circle cx="800" cy="120" r="1" opacity="0.5"/>
    <circle cx="1000" cy="180" r="1.3" opacity="0.7"/>
    <circle cx="1200" cy="90" r="1.1" opacity="0.6"/>
    <circle cx="1400" cy="220" r="1" opacity="0.8"/>
    <circle cx="1600" cy="130" r="1.4" opacity="0.7"/>
    <circle cx="1800" cy="170" r="1.2" opacity="0.6"/>
    <circle cx="300" cy="250" r="1" opacity="0.5"/>
    <circle cx="500" cy="300" r="1.3" opacity="0.7"/>
    <circle cx="700" cy="270" r="1.1" opacity="0.6"/>
    <circle cx="900" cy="320" r="1" opacity="0.8"/>
    <circle cx="1100" cy="280" r="1.4" opacity="0.7"/>
    <circle cx="1300" cy="330" r="1.2" opacity="0.6"/>
    <circle cx="1500" cy="290" r="1" opacity="0.5"/>
    <circle cx="1700" cy="340" r="1.3" opacity="0.7"/>
  </g>
  
  <!-- Moon -->
  <circle cx="1700" cy="200" r="80" fill="#ffffff" opacity="0.9"/>
  <circle cx="1670" cy="180" r="20" fill="#e0e0e0" opacity="0.4"/>
  <circle cx="1720" cy="230" r="15" fill="#e0e0e0" opacity="0.3"/>
  <circle cx="1690" cy="240" r="10" fill="#e0e0e0" opacity="0.5"/>
  
  <!-- Mountain silhouettes -->
  <polygon points="0,1080 0,700 200,800 400,650 600,750 800,600 1000,800 1200,700 1400,750 1600,650 1800,750 1920,700 1920,1080" fill="#263238" opacity="0.8"/>
  <polygon points="0,1080 0,800 300,850 500,750 700,850 900,700 1100,900 1300,800 1500,850 1700,750 1920,800 1920,1080" fill="#1a237e" opacity="0.7"/>
  
  <!-- Hotel building -->
  <rect x="600" y="400" width="720" height="500" fill="#424242" opacity="0.9"/>
  
  <!-- Hotel windows -->
  <g fill="#ffecb3" opacity="0.8">
    <!-- Left wing -->
    <rect x="650" y="450" width="40" height="60"/>
    <rect x="720" y="450" width="40" height="60"/>
    <rect x="790" y="450" width="40" height="60"/>
    
    <rect x="650" y="540" width="40" height="60"/>
    <rect x="720" y="540" width="40" height="60"/>
    <rect x="790" y="540" width="40" height="60"/>
    
    <rect x="650" y="630" width="40" height="60"/>
    <rect x="720" y="630" width="40" height="60"/>
    <rect x="790" y="630" width="40" height="60"/>
    
    <rect x="650" y="720" width="40" height="60"/>
    <rect x="720" y="720" width="40" height="60"/>
    <rect x="790" y="720" width="40" height="60"/>
    
    <!-- Right wing -->
    <rect x="1090" y="450" width="40" height="60"/>
    <rect x="1160" y="450" width="40" height="60"/>
    <rect x="1230" y="450" width="40" height="60"/>
    
    <rect x="1090" y="540" width="40" height="60"/>
    <rect x="1160" y="540" width="40" height="60"/>
    <rect x="1230" y="540" width="40" height="60"/>
    
    <rect x="1090" y="630" width="40" height="60"/>
    <rect x="1160" y="630" width="40" height="60"/>
    <rect x="1230" y="630" width="40" height="60"/>
    
    <rect x="1090" y="720" width="40" height="60"/>
    <rect x="1160" y="720" width="40" height="60"/>
    <rect x="1230" y="720" width="40" height="60"/>
  </g>
  
  <!-- Hotel entrance -->
  <rect x="880" y="700" width="160" height="200" fill="#ffecb3" opacity="0.9"/>
  <rect x="930" y="700" width="60" height="120" fill="#ffffff" opacity="0.5"/>
  
  <!-- Entrance path -->
  <polygon points="880,900 1040,900 1100,1080 820,1080" fill="#78909c" opacity="0.8"/>
  
  <!-- Palm trees -->
  <g>
    <!-- Left palm -->
    <rect x="500" y="850" width="20" height="150" fill="#795548"/>
    <path d="M 510,850 C 480,830 460,800 470,780 C 480,760 510,770 510,780 Z" fill="#2e7d32"/>
    <path d="M 510,850 C 540,830 560,800 550,780 C 540,760 510,770 510,780 Z" fill="#2e7d32"/>
    <path d="M 510,850 C 480,830 460,860 470,880 C 480,900 510,890 510,880 Z" fill="#2e7d32"/>
    <path d="M 510,850 C 540,830 560,860 550,880 C 540,900 510,890 510,880 Z" fill="#2e7d32"/>
    
    <!-- Right palm -->
    <rect x="1400" y="850" width="20" height="150" fill="#795548"/>
    <path d="M 1410,850 C 1380,830 1360,800 1370,780 C 1380,760 1410,770 1410,780 Z" fill="#2e7d32"/>
    <path d="M 1410,850 C 1440,830 1460,800 1450,780 C 1440,760 1410,770 1410,780 Z" fill="#2e7d32"/>
    <path d="M 1410,850 C 1380,830 1360,860 1370,880 C 1380,900 1410,890 1410,880 Z" fill="#2e7d32"/>
    <path d="M 1410,850 C 1440,830 1460,860 1450,880 C 1440,900 1410,890 1410,880 Z" fill="#2e7d32"/>
  </g>
  
  <!-- Foreground -->
  <rect x="0" y="1000" width="1920" height="80" fill="#1a237e" opacity="0.6"/>
</svg>