<svg xmlns="http://www.w3.org/2000/svg" width="800" height="600" viewBox="0 0 800 600">
  <!-- Room background -->
  <rect width="800" height="600" fill="#f5f5f5"/>
  
  <!-- Room walls -->
  <rect x="50" y="50" width="700" height="500" fill="#ffffff" stroke="#e0e0e0" stroke-width="2"/>
  
  <!-- Floor -->
  <rect x="50" y="450" width="700" height="100" fill="#d7ccc8" opacity="0.7"/>
  
  <!-- Window -->
  <rect x="500" y="100" width="200" height="200" fill="#e3f2fd" stroke="#90caf9" stroke-width="10"/>
  <line x1="600" y1="100" x2="600" y2="300" stroke="#90caf9" stroke-width="5"/>
  <line x1="500" y1="200" x2="700" y2="200" stroke="#90caf9" stroke-width="5"/>
  
  <!-- Queen bed -->
  <rect x="150" y="350" width="200" height="150" fill="#fff8e1" stroke="#ffecb3" stroke-width="2"/>
  <rect x="150" y="300" width="200" height="50" fill="#ffe082" stroke="#ffecb3" stroke-width="2"/>
  
  <!-- Pillows -->
  <rect x="170" y="270" width="60" height="50" rx="10" ry="10" fill="#ffffff" stroke="#eeeeee" stroke-width="2"/>
  <rect x="270" y="270" width="60" height="50" rx="10" ry="10" fill="#ffffff" stroke="#eeeeee" stroke-width="2"/>
  
  <!-- Nightstands -->
  <rect x="100" y="350" width="50" height="70" fill="#a1887f" stroke="#8d6e63" stroke-width="2"/>
  <rect x="350" y="350" width="50" height="70" fill="#a1887f" stroke="#8d6e63" stroke-width="2"/>
  
  <!-- Lamps on nightstands -->
  <rect x="115" y="320" width="20" height="30" fill="#d7ccc8"/>
  <ellipse cx="125" cy="310" rx="15" ry="10" fill="#ffecb3"/>
  <rect x="365" y="320" width="20" height="30" fill="#d7ccc8"/>
  <ellipse cx="375" cy="310" rx="15" ry="10" fill="#ffecb3"/>
  
  <!-- Desk -->
  <rect x="500" y="350" width="150" height="70" fill="#a1887f" stroke="#8d6e63" stroke-width="2"/>
  <rect x="520" y="420" width="15" height="30" fill="#8d6e63"/>
  <rect x="615" y="420" width="15" height="30" fill="#8d6e63"/>
  
  <!-- Chair -->
  <rect x="550" y="430" width="50" height="10" fill="#8d6e63"/>
  <rect x="560" y="440" width="30" height="30" fill="#a1887f"/>
  <rect x="560" y="420" width="30" height="10" fill="#8d6e63"/>
  <line x1="560" y1="420" x2="560" y2="470" stroke="#8d6e63" stroke-width="2"/>
  <line x1="590" y1="420" x2="590" y2="470" stroke="#8d6e63" stroke-width="2"/>
  
  <!-- TV on wall -->
  <rect x="100" y="150" width="150" height="80" fill="#212121" stroke="#424242" stroke-width="2"/>
  
  <!-- Decorative elements -->
  <rect x="300" y="150" width="80" height="120" fill="#e0e0e0" stroke="#bdbdbd" stroke-width="2"/>
  <rect x="310" y="160" width="60" height="100" fill="#90a4ae"/>
  
  <!-- Small table -->
  <rect x="400" y="200" width="60" height="60" rx="30" ry="30" fill="#a1887f" stroke="#8d6e63" stroke-width="2"/>
  <rect x="420" y="260" width="20" height="40" fill="#8d6e63"/>
  
  <!-- Decorative plant -->
  <ellipse cx="430" cy="190" rx="20" ry="10" fill="#8d6e63"/>
  <path d="M 430,190 L 425,160 M 430,190 L 435,165 M 430,190 L 420,170 M 430,190 L 440,170" stroke="#66bb6a" stroke-width="2"/>
  <path d="M 425,160 C 420,150 430,140 435,155" stroke="#66bb6a" stroke-width="2" fill="none"/>
  <path d="M 435,165 C 440,155 445,150 440,140" stroke="#66bb6a" stroke-width="2" fill="none"/>
  <path d="M 420,170 C 410,165 405,155 415,150" stroke="#66bb6a" stroke-width="2" fill="none"/>
  <path d="M 440,170 C 450,165 455,160 450,150" stroke="#66bb6a" stroke-width="2" fill="none"/>
</svg>